HIERARCHY
ROOT SimulationBone
{
	OFFSET 0.000000 0.000000 0.000000
	CHANNELS 6 Xposition Yposition Zposition Zrotation Yrotation Xrotation 
	JOINT Hips
	{
		OFFSET 0.000000 0.000000 0.000000
		CHANNELS 6 Xposition Yposition Zposition Zrotation Yrotation Xrotation 
		JOINT RightUpLeg
		{
			OFFSET 0.103459 1.857828 10.548492
			CHANNELS 3 Zrotation Yrotation Xrotation
			JOINT RightLeg
			{
				OFFSET 43.500004 -0.000011 -0.000004
				CHANNELS 3 Zrotation Yrotation Xrotation
				JOINT RightFoot
				{
					OFFSET 42.372200 0.000004 -0.000018
					CHANNELS 3 Zrotation Yrotation Xrotation
					JOINT RightToe
					{
						OFFSET 17.299999 -0.000001 -0.000005
						CHANNELS 3 Zrotation Yrotation Xrotation
						End Site
						{
							OFFSET 0.000000 0.000000 0.000000
						}
					}
				}
			}
		}
		JOINT LeftUpLeg
		{
			OFFSET 0.103456 1.857824 -10.548500
			CHANNELS 3 Zrotation Yrotation Xrotation
			JOINT LeftLeg
			{
				OFFSET 43.500046 -0.000004 0.000013
				CHANNELS 3 Zrotation Yrotation Xrotation
				JOINT LeftFoot
				{
					OFFSET 42.372269 -0.000015 0.000020
					CHANNELS 3 Zrotation Yrotation Xrotation
					JOINT LeftToe
					{
						OFFSET 17.299974 -0.000010 -0.000002
						CHANNELS 3 Zrotation Yrotation Xrotation
						End Site
						{
							OFFSET 0.000000 0.000000 0.000000
						}
					}
				}
			}
		}
		JOINT Spine
		{
			OFFSET 6.901967 -2.603733 0.000003
			CHANNELS 3 Zrotation Yrotation Xrotation
			JOINT Spine1
			{
				OFFSET 12.588101 0.000006 -0.000014
				CHANNELS 3 Zrotation Yrotation Xrotation
				JOINT Spine2
				{
					OFFSET 12.343203 -0.000006 0.000010
					CHANNELS 3 Zrotation Yrotation Xrotation
					JOINT Neck
					{
						OFFSET 25.832886 -0.000004 0.000009
						CHANNELS 3 Zrotation Yrotation Xrotation
						JOINT Head
						{
							OFFSET 11.766619 0.000000 -0.000008
							CHANNELS 3 Zrotation Yrotation Xrotation
							End Site
							{
								OFFSET 0.000000 0.000000 0.000000
							}
						}
					}
					JOINT RightShoulder
					{
						OFFSET 19.745895 -1.480373 6.000121
						CHANNELS 3 Zrotation Yrotation Xrotation
						JOINT RightArm
						{
							OFFSET 11.284116 -0.000025 -0.000019
							CHANNELS 3 Zrotation Yrotation Xrotation
							JOINT RightForeArm
							{
								OFFSET 33.000046 0.000010 0.000041
								CHANNELS 3 Zrotation Yrotation Xrotation
								JOINT RightHand
								{
									OFFSET 25.200005 0.000005 0.000001
									CHANNELS 3 Zrotation Yrotation Xrotation
									End Site
									{
										OFFSET 0.000000 0.000000 0.000000
									}
								}
							}
						}
					}
					JOINT LeftShoulder
					{
						OFFSET 19.746092 -1.480366 -6.000068
						CHANNELS 3 Zrotation Yrotation Xrotation
						JOINT LeftArm
						{
							OFFSET 11.284133 -0.000025 -0.000013
							CHANNELS 3 Zrotation Yrotation Xrotation
							JOINT LeftForeArm
							{
								OFFSET 33.000114 0.000025 -0.000011
								CHANNELS 3 Zrotation Yrotation Xrotation
								JOINT LeftHand
								{
									OFFSET 25.199759 0.000128 0.000418
									CHANNELS 3 Zrotation Yrotation Xrotation
									End Site
									{
										OFFSET 0.000000 0.000000 0.000000
									}
								}
							}
						}
					}
				}
			}
		}
	}
}
MOTION
Frames: 10
Frame Time: 0.016667
28.500521 0.000000 -457.077918 0.000000 33.539475 0.000000 -5.580745 91.053886 0.845574 83.391251 -0.489682 179.311709 158.643233 -7.197798 168.844708 -25.400032 3.170697 -12.464412 80.703492 6.555578 -9.072617 21.454558 0.003106 0.000017 158.741123 5.128997 -154.059068 -31.048338 -0.748183 18.075648 84.567344 -11.304823 5.261556 21.454557 -0.003089 0.000001 7.869478 -1.184303 0.105319 5.725739 -2.372293 0.152246 5.407352 -2.371459 0.166575 -8.959107 -12.121200 -10.745188 -32.755073 15.109821 -22.886492 162.438003 -71.981324 16.712039 -9.417172 44.618582 13.843747 -42.810310 -11.447179 1.328617 5.413211 -13.142490 -2.536707 179.853989 79.906336 1.364965 -27.832784 -53.072726 -35.899996 -26.592535 8.629544 -0.756330 13.716478 3.241322 10.987767 
28.808432 0.000000 -456.689639 0.000000 32.647612 0.000000 -5.393260 91.030316 0.784011 83.729021 -0.390027 179.471173 159.155071 -7.572021 168.458119 -25.622698 3.328622 -12.659629 80.644123 6.630007 -9.315869 21.454563 0.003096 0.000015 159.118369 4.556946 -154.675784 -30.951394 -0.850727 18.119611 84.736316 -11.347134 5.195774 21.454553 -0.003087 0.000001 7.839799 -1.117247 0.093704 5.666511 -2.237655 0.132912 5.348148 -2.236944 0.146419 -8.580872 -12.105872 -10.889716 -32.571211 15.415117 -23.120196 164.157533 -71.727601 14.959761 -8.802131 45.183658 14.892981 -41.589220 -11.339119 1.287659 5.187850 -12.545264 -2.379752 -178.533036 79.780704 3.002035 -26.529489 -53.500597 -37.629039 -26.797347 8.740159 -0.766781 13.606518 2.719802 10.408756 
29.090377 0.000000 -456.316793 0.000000 31.736068 0.000000 -5.211951 90.995590 0.732239 84.055666 -0.279901 179.629063 159.588558 -7.961501 168.271737 -25.981704 3.408960 -12.955260 80.583930 6.771179 -9.581775 21.454562 0.003103 0.000016 159.470423 4.019201 -155.409808 -30.899355 -0.834970 18.199877 84.921250 -11.421669 5.099482 21.454553 -0.003087 0.000001 7.812292 -1.047849 0.072342 5.611804 -2.097884 0.094085 5.293475 -2.097412 0.106746 -8.204516 -12.049561 -10.986377 -32.254983 15.722457 -23.265400 165.115027 -71.454588 13.988981 -8.032350 45.784154 16.040995 -40.264131 -11.167481 1.241573 5.257384 -11.895942 -1.910777 -177.327885 79.661583 4.224977 -25.266414 -53.874563 -38.964138 -27.013273 8.739974 -0.770540 13.394570 2.404436 9.935658 
29.347843 0.000000 -455.959534 0.000000 30.804540 0.000000 -5.032267 90.951673 0.691861 84.380896 -0.173964 179.790636 159.949950 -8.351586 168.233079 -26.479356 3.425827 -13.346453 80.502765 6.976004 -9.861383 21.454558 0.003115 0.000017 159.808673 3.531846 -156.167195 -30.897235 -0.749062 18.268925 85.130453 -11.495685 4.971193 21.454554 -0.003088 0.000001 7.788968 -0.980249 0.040320 5.565617 -1.961222 0.033721 5.247323 -1.961116 0.045558 -7.810836 -11.917350 -11.042530 -31.849820 15.994753 -23.306378 165.523206 -71.200719 13.580763 -7.207901 46.452095 17.221911 -38.812955 -10.928436 1.188867 5.520240 -11.111861 -1.535765 -176.252777 79.524931 5.315913 -24.109054 -54.184911 -40.001507 -27.230231 8.682191 -0.770461 13.158709 2.234404 9.568185 
29.582316 0.000000 -455.618017 0.000000 29.852782 0.000000 -4.849531 90.900528 0.664194 84.713866 -0.087301 179.960986 160.246114 -8.726302 168.289728 -27.117815 3.392689 -13.828134 80.380493 7.241214 -10.145921 21.454557 0.003121 0.000018 160.142350 3.110113 -156.854133 -30.950253 -0.641127 18.279003 85.372063 -11.536360 4.809659 21.454555 -0.003090 0.000000 7.771840 -0.918584 -0.003264 5.531956 -1.835896 -0.050193 5.213691 -1.836300 -0.039109 -7.380707 -11.674207 -11.064919 -31.399372 16.194143 -23.228468 165.584972 -70.996193 13.525985 -6.429961 47.223695 18.368299 -37.213588 -10.617920 1.128849 5.864838 -10.105872 -1.659315 -175.054933 79.342490 6.531972 -23.121793 -54.419790 -40.837625 -27.438209 8.619989 -0.769804 12.978693 2.150197 9.305685 
29.795283 0.000000 -455.292395 0.000000 28.880605 0.000000 -4.660647 90.844504 0.649567 85.059420 -0.029649 -179.859657 160.480321 -9.078597 168.398413 -27.901001 3.318146 -14.393178 80.194882 7.557188 -10.446654 21.454558 0.003113 0.000017 160.478041 2.761100 -157.388988 -31.055589 -0.553812 18.187069 85.648532 -11.514253 4.611843 21.454553 -0.003092 -0.000001 7.762322 -0.865679 -0.058289 5.513620 -1.727554 -0.157538 5.195375 -1.728611 -0.147104 -6.908838 -11.299266 -11.053188 -30.932018 16.293714 -23.019607 165.475330 -70.862522 13.644160 -5.782300 48.123180 19.429736 -35.469026 -10.235526 1.062599 6.163512 -8.800890 -2.474678 -173.601148 79.095093 8.009115 -22.347457 -54.573999 -41.545238 -27.632283 8.597982 -0.771642 12.903947 2.105954 9.141213 
29.988231 0.000000 -454.982822 0.000000 27.887886 0.000000 -4.469283 90.787483 0.645505 85.407396 0.012318 -179.689884 160.638905 -9.440313 168.552567 -28.839773 3.193244 -15.026319 79.914845 7.889021 -10.854229 21.454560 0.003105 0.000017 160.817760 2.462096 -157.738752 -31.177210 -0.507316 17.969212 85.940376 -11.413774 4.366529 21.454553 -0.003092 -0.000001 7.759408 -0.819142 -0.120546 5.508520 -1.631594 -0.279750 5.190292 -1.633392 -0.269893 -6.444732 -10.828751 -10.981860 -30.413042 16.311779 -22.673954 165.301027 -70.798910 13.826049 -5.272911 49.112259 20.431644 -33.682346 -9.796469 0.994194 6.290870 -7.190194 -3.337345 -172.121121 78.814640 9.514015 -21.745149 -54.676048 -42.101729 -27.827658 8.626601 -0.776898 12.858527 2.107783 9.041763 
30.162647 0.000000 -454.689453 0.000000 26.874569 0.000000 -4.279753 90.732892 0.649496 85.747829 0.052318 -179.551551 160.703668 -9.841844 168.737886 -29.949796 3.016730 -15.700128 79.516822 8.205874 -11.403580 21.454557 0.003110 0.000019 161.161018 2.188197 -157.909865 -31.281780 -0.507457 17.620719 86.227054 -11.231871 4.066588 21.454555 -0.003089 -0.000000 7.761840 -0.776096 -0.185451 5.514069 -1.542466 -0.407494 5.195864 -1.545035 -0.398173 -6.037136 -10.308918 -10.827587 -29.802261 16.271954 -22.190789 165.140799 -70.792866 13.991500 -4.875136 50.140424 21.409953 -32.002463 -9.315356 0.927070 6.301105 -5.451925 -4.066949 -170.850531 78.544763 10.806584 -21.269159 -54.760649 -42.475360 -28.034424 8.708383 -0.785844 12.766917 2.168442 8.983221 
30.320017 0.000000 -454.412440 0.000000 25.840675 0.000000 -4.091704 90.680794 0.660553 86.083956 0.080225 -179.461143 160.656677 -10.269196 168.872397 -31.260593 2.837076 -16.349448 79.019646 8.524995 -11.826671 21.454555 0.003116 0.000020 161.500164 1.936400 -158.017178 -31.380897 -0.525214 17.194002 86.506735 -11.001773 3.728876 21.454558 -0.003086 0.000001 7.769773 -0.736950 -0.250970 5.530560 -1.461071 -0.536715 5.212375 -1.464421 -0.527883 -5.679912 -9.767996 -10.595172 -29.100717 16.176159 -21.585169 165.034076 -70.806307 14.100946 -4.491779 51.174491 22.375241 -30.663761 -8.788029 0.865928 6.795447 -4.372670 -7.128647 -169.840111 78.308325 11.834951 -20.947926 -54.855440 -42.682900 -28.222033 8.848484 -0.798351 12.680850 2.277373 9.003033 
30.461829 0.000000 -454.151939 0.000000 24.786301 0.000000 -3.904832 90.628873 0.675905 86.420085 0.085845 -179.432935 160.488563 -10.702097 168.888236 -32.792798 2.704264 -16.920877 78.447051 8.870728 -11.877037 21.454557 0.003110 0.000019 161.824334 1.708381 -158.185217 -31.498852 -0.526051 16.747316 86.782976 -10.760332 3.373987 21.454557 -0.003087 0.000001 7.783537 -0.702786 -0.313927 5.558636 -1.389707 -0.661105 5.240462 -1.393812 -0.652702 -5.347540 -9.220280 -10.296345 -28.327501 16.012550 -20.871010 164.989268 -70.809352 14.146465 -4.018930 52.204840 23.278968 -29.854040 -8.268845 0.816179 8.243479 -4.515876 -14.443566 -169.082376 78.119226 12.606574 -20.804905 -54.977987 -42.743476 -28.368708 9.044187 -0.813812 12.662641 2.416775 9.113359 
